<svg xmlns="http://www.w3.org/2000/svg" xmlns:xlink="http://www.w3.org/1999/xlink" width="1920" zoomAndPan="magnify" viewBox="0 0 1440 374.999991" height="500" preserveAspectRatio="xMidYMid meet" version="1.0"><defs><g/><clipPath id="6b553d05c2"><rect x="0" width="1440" y="0" height="365"/></clipPath></defs><g transform="matrix(1, 0, 0, 1, 0, 5)"><g clip-path="url(#6b553d05c2)"><g fill="#323232" fill-opacity="1"><g transform="translate(0.00001728, 276.515214)"><g><path d="M 24.328125 0 L 24.328125 -198.125 L 145.71875 -198.125 L 145.71875 -164.96875 L 63.90625 -164.96875 L 63.90625 -119.25 L 133.421875 -119.25 L 133.421875 -86.09375 L 63.90625 -86.09375 L 63.90625 -33.15625 L 148.65625 -33.15625 L 148.65625 0 Z M 24.328125 0 "/></g></g></g><g fill="#323232" fill-opacity="1"><g transform="translate(164.424527, 276.515214)"><g><path d="M 83.421875 3.75 C 70.234375 3.75 57.3125 1.253906 44.65625 -3.734375 C 32 -8.734375 20.859375 -15.867188 11.234375 -25.140625 L 33.953125 -52.40625 C 41.085938 -45.8125 49.066406 -40.507812 57.890625 -36.5 C 66.710938 -32.488281 75.488281 -30.484375 84.21875 -30.484375 C 94.5625 -30.484375 102.40625 -32.53125 107.75 -36.625 C 113.09375 -40.726562 115.765625 -46.253906 115.765625 -53.203125 C 115.765625 -58.191406 114.515625 -62.15625 112.015625 -65.09375 C 109.523438 -68.039062 106.050781 -70.628906 101.59375 -72.859375 C 97.144531 -75.085938 91.976562 -77.445312 86.09375 -79.9375 L 59.625 -91.171875 C 53.03125 -94.023438 46.65625 -97.722656 40.5 -102.265625 C 34.351562 -106.816406 29.316406 -112.566406 25.390625 -119.515625 C 21.472656 -126.460938 19.515625 -134.75 19.515625 -144.375 C 19.515625 -155.25 22.457031 -164.960938 28.34375 -173.515625 C 34.226562 -182.078125 42.289062 -188.894531 52.53125 -193.96875 C 62.78125 -199.050781 74.59375 -201.59375 87.96875 -201.59375 C 99.550781 -201.59375 110.78125 -199.410156 121.65625 -195.046875 C 132.53125 -190.679688 141.976562 -184.398438 150 -176.203125 L 129.9375 -151.328125 C 123.707031 -156.503906 117.203125 -160.515625 110.421875 -163.359375 C 103.648438 -166.210938 96.164062 -167.640625 87.96875 -167.640625 C 79.226562 -167.640625 72.316406 -165.8125 67.234375 -162.15625 C 62.160156 -158.507812 59.625 -153.382812 59.625 -146.78125 C 59.625 -142.15625 61.003906 -138.328125 63.765625 -135.296875 C 66.523438 -132.265625 70.265625 -129.675781 74.984375 -127.53125 C 79.710938 -125.394531 84.84375 -123.171875 90.375 -120.859375 L 116.3125 -109.890625 C 128.425781 -104.898438 138.09375 -98.257812 145.3125 -89.96875 C 152.53125 -81.675781 156.140625 -70.40625 156.140625 -56.15625 C 156.140625 -45.457031 153.242188 -35.5625 147.453125 -26.46875 C 141.660156 -17.375 133.375 -10.0625 122.59375 -4.53125 C 111.8125 0.988281 98.753906 3.75 83.421875 3.75 Z M 83.421875 3.75 "/></g></g></g><g fill="#323232" fill-opacity="1"><g transform="translate(331.255269, 276.515214)"><g><path d="M 63.640625 0 L 63.640625 -164.96875 L 8.015625 -164.96875 L 8.015625 -198.125 L 159.359375 -198.125 L 159.359375 -164.96875 L 103.203125 -164.96875 L 103.203125 0 Z M 63.640625 0 "/></g></g></g><g fill="#323232" fill-opacity="1"><g transform="translate(498.353414, 276.515214)"><g><path d="M 24.328125 0 L 24.328125 -198.125 L 63.90625 -198.125 L 63.90625 0 Z M 24.328125 0 "/></g></g></g><g fill="#323232" fill-opacity="1"><g transform="translate(586.581251, 276.515214)"><g><path d="M 109.359375 3.75 C 91.535156 3.75 75.445312 -0.171875 61.09375 -8.015625 C 46.75 -15.859375 35.382812 -27.351562 27 -42.5 C 18.625 -57.65625 14.4375 -76.195312 14.4375 -98.125 C 14.4375 -119.875 18.671875 -138.457031 27.140625 -153.875 C 35.609375 -169.289062 47.0625 -181.097656 61.5 -189.296875 C 75.9375 -197.492188 91.890625 -201.59375 109.359375 -201.59375 C 123.617188 -201.59375 135.78125 -199.007812 145.84375 -193.84375 C 155.914062 -188.675781 164.160156 -182.796875 170.578125 -176.203125 L 149.734375 -151.0625 C 144.742188 -155.695312 139.21875 -159.617188 133.15625 -162.828125 C 127.09375 -166.035156 119.601562 -167.640625 110.6875 -167.640625 C 99.820312 -167.640625 90.15625 -164.921875 81.6875 -159.484375 C 73.21875 -154.046875 66.617188 -146.25 61.890625 -136.09375 C 57.171875 -125.9375 54.8125 -113.726562 54.8125 -99.46875 C 54.8125 -77.894531 59.753906 -61.003906 69.640625 -48.796875 C 79.535156 -36.585938 94.203125 -30.484375 113.640625 -30.484375 C 118.273438 -30.484375 122.816406 -31.148438 127.265625 -32.484375 C 131.722656 -33.816406 135.378906 -35.644531 138.234375 -37.96875 L 138.234375 -77 L 103.203125 -77 L 103.203125 -109.359375 L 173.53125 -109.359375 L 173.53125 -20.046875 C 166.9375 -13.453125 158.019531 -7.835938 146.78125 -3.203125 C 135.550781 1.429688 123.078125 3.75 109.359375 3.75 Z M 109.359375 3.75 "/></g></g></g><g fill="#323232" fill-opacity="1"><g transform="translate(778.276145, 276.515214)"><g><path d="M 24.328125 0 L 24.328125 -198.125 L 63.90625 -198.125 L 63.90625 0 Z M 24.328125 0 "/></g></g></g><g fill="#323232" fill-opacity="1"><g transform="translate(866.503981, 276.515214)"><g><path d="M 24.328125 0 L 24.328125 -198.125 L 64.703125 -198.125 L 122.1875 -92.515625 L 141.96875 -49.734375 L 143.3125 -49.734375 C 142.414062 -60.066406 141.34375 -71.382812 140.09375 -83.6875 C 138.851562 -95.988281 138.234375 -107.753906 138.234375 -118.984375 L 138.234375 -198.125 L 175.671875 -198.125 L 175.671875 0 L 135.5625 0 L 78.34375 -105.875 L 58.28125 -148.390625 L 56.953125 -148.390625 C 57.835938 -137.691406 58.859375 -126.367188 60.015625 -114.421875 C 61.179688 -102.484375 61.765625 -90.8125 61.765625 -79.40625 L 61.765625 0 Z M 24.328125 0 "/></g></g></g><g fill="#323232" fill-opacity="1"><g transform="translate(1066.754199, 276.515214)"><g><path d="M 63.640625 0 L 63.640625 -164.96875 L 8.015625 -164.96875 L 8.015625 -198.125 L 159.359375 -198.125 L 159.359375 -164.96875 L 103.203125 -164.96875 L 103.203125 0 Z M 63.640625 0 "/></g></g></g><g fill="#323232" fill-opacity="1"><g transform="translate(1233.852344, 276.515214)"><g><path d="M 102.9375 3.75 C 85.46875 3.75 70.09375 -0.4375 56.8125 -8.8125 C 43.53125 -17.195312 33.144531 -29.097656 25.65625 -44.515625 C 18.175781 -59.929688 14.4375 -78.335938 14.4375 -99.734375 C 14.4375 -121.296875 18.175781 -139.648438 25.65625 -154.796875 C 33.144531 -169.953125 43.53125 -181.539062 56.8125 -189.5625 C 70.09375 -197.582031 85.46875 -201.59375 102.9375 -201.59375 C 120.40625 -201.59375 135.78125 -197.582031 149.0625 -189.5625 C 162.34375 -181.539062 172.722656 -169.910156 180.203125 -154.671875 C 187.691406 -139.429688 191.4375 -121.117188 191.4375 -99.734375 C 191.4375 -78.335938 187.691406 -59.929688 180.203125 -44.515625 C 172.722656 -29.097656 162.34375 -17.195312 149.0625 -8.8125 C 135.78125 -0.4375 120.40625 3.75 102.9375 3.75 Z M 102.9375 -30.484375 C 117.726562 -30.484375 129.445312 -36.765625 138.09375 -49.328125 C 146.738281 -61.898438 151.0625 -78.703125 151.0625 -99.734375 C 151.0625 -120.941406 146.738281 -137.5625 138.09375 -149.59375 C 129.445312 -161.625 117.726562 -167.640625 102.9375 -167.640625 C 88.320312 -167.640625 76.644531 -161.625 67.90625 -149.59375 C 59.175781 -137.5625 54.8125 -120.941406 54.8125 -99.734375 C 54.8125 -78.703125 59.175781 -61.898438 67.90625 -49.328125 C 76.644531 -36.765625 88.320312 -30.484375 102.9375 -30.484375 Z M 102.9375 -30.484375 "/></g></g></g></g></g></svg>